# xmcd
#
# Track frame offsets: 
#        150
#        18844
#        37333
#        58749
#        79503
#        99479
#        119208
#
# Disc length: 1812 seconds
#
# Revision: 0
# Processed by: cddbd v1.5.2PL0 Copyright (c) Steve Scherf et al.
# Submitted via: ExactAudioCopy v1.2
#
DISCID=5a071207
DTITLE=Crossroads Duo - Crossroads Duo
DYEAR=2016
DGENRE=Blues
TTITLE0=Nothin' but the Blues
TTITLE1=My Baby (She's a Good 'Un)
TTITLE2=Dimples
TTITLE3=It's Alright
TTITLE4=Dizzy
TTITLE5=Checkin' up on My Baby
TTITLE6=Tube Snake Boogie
EXTD=
EXTT0=
EXTT1=
EXTT2=
EXTT3=
EXTT4=
EXTT5=
EXTT6=
PLAYORDER=
